<svg width="7" height="193" viewBox="0 0 7 193" fill="none" xmlns="http://www.w3.org/2000/svg">
<path d="M3.5 192.887L6.38675 190L3.5 187.113L0.613249 190L3.5 192.887ZM4 190V186.042H3V190H4ZM4 178.125V170.208H3V178.125H4ZM4 162.292V154.375H3V162.292H4ZM4 146.458L4 138.542H3L3 146.458H4ZM4 130.625L4 122.708H3L3 130.625H4ZM4 114.792V106.875H3V114.792H4ZM4 98.9583V91.0417H3L3 98.9583H4ZM4 83.125V75.2083H3V83.125H4ZM4 67.2917V59.375H3V67.2917H4ZM4 51.4583V43.5417H3V51.4583H4ZM4 35.625L4 27.7083H3L3 35.625H4ZM4 19.7917L4 11.875H3L3 19.7917H4ZM4 3.95833V0H3V3.95833H4Z" fill="white" fill-opacity="0.56"/>
</svg>
