<svg width="21" height="20" viewBox="0 0 21 20" fill="none" xmlns="http://www.w3.org/2000/svg">
<g clip-path="url(#clip0_817_245)">
<path d="M19.4791 0.768555L11.7061 6.53429L13.1529 3.12597L19.4791 0.768555Z" fill="#E17726" stroke="#E17726" stroke-width="0.0333333" stroke-linecap="round" stroke-linejoin="round"/>
<path d="M1.52094 0.768555L9.23725 6.5911L7.84718 3.15438L1.52094 0.768555ZM16.6699 14.1462L14.599 17.3273L19.0529 18.5486L20.3294 14.2314C20.3011 14.2314 16.6699 14.1462 16.6699 14.1462ZM0.698242 14.2314L1.97484 18.5486L6.40037 17.3273L4.32945 14.1462L0.698242 14.2314Z" fill="#E27625" stroke="#E27625" stroke-width="0.0333333" stroke-linecap="round" stroke-linejoin="round"/>
<path d="M6.14564 8.80673L4.92578 10.6813L9.29458 10.8517L9.15273 6.13688L6.14564 8.80673ZM14.8549 8.80673L11.791 6.08008L11.6776 10.8801L16.0747 10.6813C16.0747 10.6529 14.8549 8.80673 14.8549 8.80673ZM6.40096 17.3275L9.06763 16.0494L6.76975 14.26L6.40096 17.3275ZM11.9612 16.021L14.5995 17.2991L14.2307 14.2316C14.2591 14.26 11.9612 16.021 11.9612 16.021Z" fill="#E27625" stroke="#E27625" stroke-width="0.0333333" stroke-linecap="round" stroke-linejoin="round"/>
<path d="M14.599 17.327L11.9607 16.0489L12.1876 17.7815L12.1593 18.5199L14.599 17.327ZM6.40039 17.327L8.86848 18.4915L8.84011 17.7531L9.06706 16.0205L6.40039 17.327Z" fill="#D5BFB2" stroke="#D5BFB2" stroke-width="0.0333333" stroke-linecap="round" stroke-linejoin="round"/>
<path d="M8.89729 13.1241L6.71289 12.4708L8.27317 11.7607L8.89729 13.1241ZM12.103 13.1241L12.7554 11.7607L14.3157 12.4708L12.103 13.1241Z" fill="#233447" stroke="#233447" stroke-width="0.0333333" stroke-linecap="round" stroke-linejoin="round"/>
<path d="M6.40026 17.327L6.79743 14.1459L4.35771 14.2311C4.32934 14.2311 6.40026 17.327 6.40026 17.327ZM14.2301 14.1459L14.5988 17.327L16.6698 14.2311L14.2301 14.1459ZM16.074 10.6523L11.6769 10.8512L12.074 13.095L12.7265 11.7316L14.2868 12.4417C14.3152 12.4701 16.074 10.6523 16.074 10.6523ZM6.71232 12.4701L8.2726 11.76L8.92509 13.1234L9.32225 10.8796L4.92509 10.6807L6.71232 12.4701Z" fill="#CC6228" stroke="#CC6228" stroke-width="0.0333333" stroke-linecap="round" stroke-linejoin="round"/>
<path d="M4.92578 10.6523L6.76975 14.2311L6.71302 12.4417C6.71302 12.4701 4.92578 10.6523 4.92578 10.6523ZM14.3159 12.4701L14.2307 14.2595L16.0747 10.6807C16.0747 10.6523 14.3159 12.4701 14.3159 12.4701ZM9.32294 10.8512L8.89741 13.095L9.40805 15.7648L9.52153 12.2429L9.32294 10.8512ZM11.7059 10.8512L11.479 12.2429L11.5924 15.7648L12.1031 13.095L11.7059 10.8512Z" fill="#E27525" stroke="#E27525" stroke-width="0.0333333" stroke-linecap="round" stroke-linejoin="round"/>
<path d="M12.103 13.124L11.5923 15.7938L11.9611 16.0494L14.2306 14.2601L14.3157 12.4707L12.103 13.124ZM6.71289 12.4707L6.76963 14.2601L9.0675 16.0494L9.4363 15.7938L8.92566 13.124L6.71289 12.4707Z" fill="#F5841F" stroke="#F5841F" stroke-width="0.0333333" stroke-linecap="round" stroke-linejoin="round"/>
<path d="M12.1593 18.4917L12.1876 17.7533L11.989 17.5829H9.03869L8.84011 17.7533L8.86848 18.4917L6.40039 17.3272L7.27982 18.0373L9.03869 19.2302H12.0458L13.8046 18.0089L14.6557 17.2988L12.1593 18.4917Z" fill="#C0AC9D" stroke="#C0AC9D" stroke-width="0.0333333" stroke-linecap="round" stroke-linejoin="round"/>
<path d="M11.9614 16.0203L11.5926 15.7646H9.43657L9.06777 16.0203L8.84082 17.7528L9.0394 17.5824H11.9898L12.1883 17.7528L11.9614 16.0203Z" fill="#161616" stroke="#161616" stroke-width="0.0333333" stroke-linecap="round" stroke-linejoin="round"/>
<path d="M19.8191 6.93193L20.4716 3.75083L19.4787 0.768555L11.9609 6.36387L14.8546 8.8065L18.9397 9.99941L19.8475 8.94851L19.4503 8.66449L20.0744 8.09643L19.5922 7.7272L20.2163 7.24435L19.8191 6.93193ZM0.52832 3.75083L1.1808 6.93193L0.783639 7.24435L1.40775 7.7272L0.925483 8.09643L1.5496 8.66449L1.15243 8.94851L2.06024 9.99941L6.14534 8.8065L9.03896 6.36387L1.52123 0.768555L0.52832 3.75083Z" fill="#763E1A" stroke="#763E1A" stroke-width="0.0333333" stroke-linecap="round" stroke-linejoin="round"/>
<path d="M18.9394 9.99941L14.8543 8.8065L16.0741 10.6527L14.2302 14.2314L16.6699 14.203H20.3011L18.9394 9.99941ZM6.14505 8.8065L2.05994 9.99941L0.698242 14.2314H4.32945L6.76916 14.2598L4.92519 10.6811L6.14505 8.8065ZM11.7053 10.8515L11.9607 6.33547L13.1521 3.12598H7.84718L9.03867 6.33547L9.29399 10.8515L9.40746 12.2716V15.7652H11.5919V12.2716L11.7053 10.8515Z" fill="#F5841F" stroke="#F5841F" stroke-width="0.0333333" stroke-linecap="round" stroke-linejoin="round"/>
</g>
<defs>
<clipPath id="clip0_817_245">
<rect width="20" height="18.5185" fill="white" transform="translate(0.5 0.740234)"/>
</clipPath>
</defs>
</svg>
