<svg width="21" height="20" viewBox="0 0 21 20" fill="none" xmlns="http://www.w3.org/2000/svg">
<g clip-path="url(#clip0_817_262)">
<path d="M10.4998 0.164252C8.55178 0.188426 6.65439 0.785866 5.04642 1.88138C3.43845 2.97689 2.19171 4.52157 1.46301 6.32105C0.734312 8.12054 0.556234 10.0944 0.951168 11.9945C1.3461 13.8945 2.29638 15.6358 3.68251 16.9993C5.06865 18.3627 6.82868 19.2875 8.7412 19.6571C10.6537 20.0268 12.6333 19.8248 14.4309 19.0767C16.2285 18.3287 17.7637 17.0678 18.8436 15.4528C19.9235 13.8378 20.4996 11.9408 20.4997 10.0005C20.4831 7.37548 19.4203 4.86447 17.545 3.01985C15.6697 1.17522 13.1355 0.148036 10.4998 0.164252Z" fill="#00EDBE"/>
<path d="M14.4515 6.36313C14.4247 5.87128 14.5452 5.38258 14.7976 4.95899H6.73667C6.66442 4.95873 6.59284 4.97265 6.52599 4.99994C6.45915 5.02724 6.39836 5.06738 6.34709 5.11807C6.29582 5.16877 6.25509 5.22902 6.2272 5.2954C6.19932 5.36177 6.18483 5.43297 6.18457 5.50492V7.22102C6.18483 7.29297 6.19932 7.36417 6.2272 7.43054C6.25509 7.49692 6.29582 7.55717 6.34709 7.60787C6.39836 7.65856 6.45915 7.69871 6.52599 7.726C6.59284 7.7533 6.66442 7.76721 6.73667 7.76695H14.7976C14.5452 7.34336 14.4247 6.85466 14.4515 6.36281" fill="#141BEB"/>
<path d="M4.9285 10.0282C4.95479 10.5201 4.83387 11.0086 4.58105 11.432H12.642C12.7142 11.4322 12.7858 11.4183 12.8527 11.391C12.9195 11.3637 12.9803 11.3236 13.0316 11.2729C13.0828 11.2222 13.1236 11.162 13.1515 11.0956C13.1793 11.0292 13.1938 10.958 13.1941 10.8861V9.16996C13.1938 9.09801 13.1793 9.02681 13.1515 8.96044C13.1236 8.89406 13.0828 8.83381 13.0316 8.78311C12.9803 8.73242 12.9195 8.69227 12.8527 8.66498C12.7858 8.63768 12.7142 8.62377 12.642 8.62403H4.58105C4.83348 9.04762 4.95394 9.53632 4.92718 10.0282" fill="#141BEB"/>
<path d="M14.4515 13.6922C14.4247 13.2004 14.5452 12.7117 14.7976 12.2881H6.73667C6.66442 12.2878 6.59284 12.3017 6.52599 12.329C6.45915 12.3563 6.39836 12.3965 6.34709 12.4472C6.29582 12.4979 6.25509 12.5581 6.2272 12.6245C6.19932 12.6909 6.18483 12.7621 6.18457 12.834V14.5501C6.18483 14.6221 6.19932 14.6933 6.2272 14.7596C6.25509 14.826 6.29582 14.8863 6.34709 14.937C6.39836 14.9877 6.45915 15.0278 6.52599 15.0551C6.59284 15.0824 6.66442 15.0963 6.73667 15.0961H14.7976C14.5452 14.6725 14.4247 14.1838 14.4515 13.6919" fill="#141BEB"/>
</g>
<defs>
<clipPath id="clip0_817_262">
<rect width="20" height="19.6721" fill="white" transform="translate(0.5 0.164062)"/>
</clipPath>
</defs>
</svg>
